<mxfile host="app.diagrams.net" agent="Mozilla/5.0 (Windows NT 10.0; Win64; x64) AppleWebKit/537.36 (KHTML, like Gecko) Chrome/130.0.0.0 Safari/537.36" version="24.8.3">
  <diagram name="Page-1" id="fYMzo0BcbzpyYIHIkNPS">
    <mxGraphModel dx="1580" dy="726" grid="1" gridSize="10" guides="1" tooltips="1" connect="1" arrows="1" fold="1" page="1" pageScale="1" pageWidth="850" pageHeight="1100" math="0" shadow="0">
      <root>
        <mxCell id="0" />
        <mxCell id="1" parent="0" />
        <mxCell id="1D_jxNblIHZvylsowLRG-24" value="VPC" style="sketch=0;outlineConnect=0;gradientColor=none;html=1;whiteSpace=wrap;fontSize=12;fontStyle=0;shape=mxgraph.aws4.group;grIcon=mxgraph.aws4.group_vpc;strokeColor=#879196;fillColor=#E6FFCC;verticalAlign=top;align=left;spacingLeft=30;fontColor=#879196;dashed=0;" vertex="1" parent="1">
          <mxGeometry x="40" y="170" width="770" height="197.5" as="geometry" />
        </mxCell>
        <mxCell id="WW3G36FDDyT7YbWVw8Y_-7" value="" style="rounded=0;whiteSpace=wrap;html=1;strokeWidth=0.1;" vertex="1" parent="1">
          <mxGeometry x="95" y="30" width="660" height="120" as="geometry" />
        </mxCell>
        <mxCell id="WW3G36FDDyT7YbWVw8Y_-6" value="&lt;b&gt;Internet&lt;/b&gt;" style="text;html=1;align=center;verticalAlign=middle;resizable=0;points=[];autosize=1;strokeColor=none;fillColor=none;" vertex="1" parent="1">
          <mxGeometry x="95" y="30" width="70" height="30" as="geometry" />
        </mxCell>
        <mxCell id="WW3G36FDDyT7YbWVw8Y_-8" value="&lt;b&gt;Operations&lt;br&gt;Team&lt;/b&gt;" style="rounded=1;whiteSpace=wrap;html=1;" vertex="1" parent="1">
          <mxGeometry x="250" y="60" width="120" height="60" as="geometry" />
        </mxCell>
        <mxCell id="WW3G36FDDyT7YbWVw8Y_-9" value="&lt;b&gt;Development&lt;br&gt;Team&lt;/b&gt;" style="rounded=1;whiteSpace=wrap;html=1;" vertex="1" parent="1">
          <mxGeometry x="470" y="60" width="120" height="60" as="geometry" />
        </mxCell>
        <mxCell id="WW3G36FDDyT7YbWVw8Y_-35" style="edgeStyle=orthogonalEdgeStyle;rounded=0;orthogonalLoop=1;jettySize=auto;html=1;dashed=1;dashPattern=1 4;" edge="1" parent="1" source="WW3G36FDDyT7YbWVw8Y_-11" target="WW3G36FDDyT7YbWVw8Y_-14">
          <mxGeometry relative="1" as="geometry" />
        </mxCell>
        <mxCell id="WW3G36FDDyT7YbWVw8Y_-11" value="" style="outlineConnect=0;dashed=0;verticalLabelPosition=bottom;verticalAlign=top;align=center;html=1;shape=mxgraph.aws3.virtual_private_cloud;fillColor=#F58534;gradientColor=none;" vertex="1" parent="1">
          <mxGeometry x="346" y="212.5" width="79.5" height="54" as="geometry" />
        </mxCell>
        <mxCell id="WW3G36FDDyT7YbWVw8Y_-29" style="edgeStyle=orthogonalEdgeStyle;rounded=0;orthogonalLoop=1;jettySize=auto;html=1;dashed=1;dashPattern=1 4;" edge="1" parent="1" source="WW3G36FDDyT7YbWVw8Y_-12" target="WW3G36FDDyT7YbWVw8Y_-11">
          <mxGeometry relative="1" as="geometry">
            <Array as="points">
              <mxPoint x="370" y="334" />
            </Array>
          </mxGeometry>
        </mxCell>
        <mxCell id="WW3G36FDDyT7YbWVw8Y_-12" value="Public subnet" style="points=[[0,0],[0.25,0],[0.5,0],[0.75,0],[1,0],[1,0.25],[1,0.5],[1,0.75],[1,1],[0.75,1],[0.5,1],[0.25,1],[0,1],[0,0.75],[0,0.5],[0,0.25]];outlineConnect=0;gradientColor=none;html=1;whiteSpace=wrap;fontSize=12;fontStyle=0;container=1;pointerEvents=0;collapsible=0;recursiveResize=0;shape=mxgraph.aws4.group;grIcon=mxgraph.aws4.group_security_group;grStroke=0;strokeColor=#7AA116;fillColor=#F2F6E8;verticalAlign=top;align=left;spacingLeft=30;fontColor=#248814;dashed=0;" vertex="1" parent="1">
          <mxGeometry x="150" y="320" width="130" height="27" as="geometry" />
        </mxCell>
        <mxCell id="WW3G36FDDyT7YbWVw8Y_-13" value="Private subnet" style="points=[[0,0],[0.25,0],[0.5,0],[0.75,0],[1,0],[1,0.25],[1,0.5],[1,0.75],[1,1],[0.75,1],[0.5,1],[0.25,1],[0,1],[0,0.75],[0,0.5],[0,0.25]];outlineConnect=0;gradientColor=none;html=1;whiteSpace=wrap;fontSize=12;fontStyle=0;container=1;pointerEvents=0;collapsible=0;recursiveResize=0;shape=mxgraph.aws4.group;grIcon=mxgraph.aws4.group_security_group;grStroke=0;strokeColor=#00A4A6;fillColor=#E6F6F7;verticalAlign=top;align=left;spacingLeft=30;fontColor=#147EBA;dashed=0;" vertex="1" parent="1">
          <mxGeometry x="450" y="317" width="130" height="30" as="geometry" />
        </mxCell>
        <mxCell id="WW3G36FDDyT7YbWVw8Y_-14" value="Internet&#xa;gateway" style="sketch=0;outlineConnect=0;fontColor=#232F3E;gradientColor=none;strokeColor=#232F3E;fillColor=#ffffff;dashed=0;verticalLabelPosition=bottom;verticalAlign=top;align=center;html=1;fontSize=12;fontStyle=0;aspect=fixed;shape=mxgraph.aws4.resourceIcon;resIcon=mxgraph.aws4.internet_gateway;" vertex="1" parent="1">
          <mxGeometry x="680" y="209.5" width="60" height="60" as="geometry" />
        </mxCell>
        <mxCell id="WW3G36FDDyT7YbWVw8Y_-32" style="edgeStyle=orthogonalEdgeStyle;rounded=0;orthogonalLoop=1;jettySize=auto;html=1;entryX=0.5;entryY=1;entryDx=0;entryDy=0;entryPerimeter=0;dashed=1;dashPattern=1 4;" edge="1" parent="1" target="WW3G36FDDyT7YbWVw8Y_-11">
          <mxGeometry relative="1" as="geometry">
            <mxPoint x="450" y="330" as="sourcePoint" />
            <mxPoint x="390" y="278" as="targetPoint" />
          </mxGeometry>
        </mxCell>
        <mxCell id="WW3G36FDDyT7YbWVw8Y_-36" value="" style="rounded=0;whiteSpace=wrap;html=1;strokeWidth=0.1;fillColor=#E1D5E7;" vertex="1" parent="1">
          <mxGeometry x="40" y="410" width="770" height="100" as="geometry" />
        </mxCell>
        <mxCell id="WW3G36FDDyT7YbWVw8Y_-41" style="edgeStyle=orthogonalEdgeStyle;rounded=0;orthogonalLoop=1;jettySize=auto;html=1;dashed=1;dashPattern=1 4;" edge="1" parent="1" source="WW3G36FDDyT7YbWVw8Y_-39">
          <mxGeometry relative="1" as="geometry">
            <mxPoint x="275" y="470" as="targetPoint" />
          </mxGeometry>
        </mxCell>
        <mxCell id="WW3G36FDDyT7YbWVw8Y_-39" value="&lt;b&gt;SSM Agent&lt;/b&gt;" style="rounded=1;whiteSpace=wrap;html=1;" vertex="1" parent="1">
          <mxGeometry x="590" y="440" width="120" height="60" as="geometry" />
        </mxCell>
        <mxCell id="WW3G36FDDyT7YbWVw8Y_-42" value="&lt;b&gt;Remote Management&lt;/b&gt;" style="text;html=1;align=center;verticalAlign=middle;resizable=0;points=[];autosize=1;strokeColor=none;fillColor=none;" vertex="1" parent="1">
          <mxGeometry x="40" y="410" width="140" height="30" as="geometry" />
        </mxCell>
        <mxCell id="WW3G36FDDyT7YbWVw8Y_-45" style="edgeStyle=orthogonalEdgeStyle;rounded=0;orthogonalLoop=1;jettySize=auto;html=1;" edge="1" parent="1" source="WW3G36FDDyT7YbWVw8Y_-44" target="WW3G36FDDyT7YbWVw8Y_-39">
          <mxGeometry relative="1" as="geometry" />
        </mxCell>
        <mxCell id="WW3G36FDDyT7YbWVw8Y_-46" style="edgeStyle=orthogonalEdgeStyle;rounded=0;orthogonalLoop=1;jettySize=auto;html=1;" edge="1" parent="1" source="WW3G36FDDyT7YbWVw8Y_-44" target="WW3G36FDDyT7YbWVw8Y_-13">
          <mxGeometry relative="1" as="geometry" />
        </mxCell>
        <mxCell id="WW3G36FDDyT7YbWVw8Y_-44" value="&lt;b&gt;Jenkins Server&lt;/b&gt;" style="rounded=1;whiteSpace=wrap;html=1;" vertex="1" parent="1">
          <mxGeometry x="350" y="575" width="120" height="60" as="geometry" />
        </mxCell>
        <mxCell id="1D_jxNblIHZvylsowLRG-2" style="edgeStyle=orthogonalEdgeStyle;rounded=0;orthogonalLoop=1;jettySize=auto;html=1;entryX=0.75;entryY=1;entryDx=0;entryDy=0;" edge="1" parent="1" source="1D_jxNblIHZvylsowLRG-20" target="WW3G36FDDyT7YbWVw8Y_-39">
          <mxGeometry relative="1" as="geometry">
            <mxPoint x="495" y="800" as="sourcePoint" />
            <Array as="points">
              <mxPoint x="680" y="800" />
            </Array>
          </mxGeometry>
        </mxCell>
        <mxCell id="1D_jxNblIHZvylsowLRG-14" value="SSM Agent" style="edgeLabel;html=1;align=center;verticalAlign=middle;resizable=0;points=[];" vertex="1" connectable="0" parent="1D_jxNblIHZvylsowLRG-2">
          <mxGeometry x="0.204" y="2" relative="1" as="geometry">
            <mxPoint x="2" y="67" as="offset" />
          </mxGeometry>
        </mxCell>
        <mxCell id="1D_jxNblIHZvylsowLRG-3" style="edgeStyle=orthogonalEdgeStyle;rounded=0;orthogonalLoop=1;jettySize=auto;html=1;entryX=0.662;entryY=0.848;entryDx=0;entryDy=0;entryPerimeter=0;exitX=0.894;exitY=0.242;exitDx=0;exitDy=0;exitPerimeter=0;" edge="1" parent="1" source="1D_jxNblIHZvylsowLRG-20">
          <mxGeometry relative="1" as="geometry">
            <mxPoint x="495" y="780" as="sourcePoint" />
            <mxPoint x="549.7399999999998" y="349.98" as="targetPoint" />
            <Array as="points">
              <mxPoint x="550" y="780" />
            </Array>
          </mxGeometry>
        </mxCell>
        <mxCell id="1D_jxNblIHZvylsowLRG-7" style="edgeStyle=orthogonalEdgeStyle;rounded=0;orthogonalLoop=1;jettySize=auto;html=1;" edge="1" parent="1">
          <mxGeometry relative="1" as="geometry">
            <mxPoint x="306" y="120" as="sourcePoint" />
            <mxPoint x="276" y="450" as="targetPoint" />
            <Array as="points">
              <mxPoint x="306" y="450" />
            </Array>
          </mxGeometry>
        </mxCell>
        <mxCell id="1D_jxNblIHZvylsowLRG-8" value="SSH" style="edgeLabel;html=1;align=center;verticalAlign=middle;resizable=0;points=[];" vertex="1" connectable="0" parent="1D_jxNblIHZvylsowLRG-7">
          <mxGeometry x="-0.1032" y="-4" relative="1" as="geometry">
            <mxPoint x="4" y="144" as="offset" />
          </mxGeometry>
        </mxCell>
        <mxCell id="1D_jxNblIHZvylsowLRG-9" style="edgeStyle=orthogonalEdgeStyle;rounded=0;orthogonalLoop=1;jettySize=auto;html=1;entryX=0.75;entryY=0;entryDx=0;entryDy=0;" edge="1" parent="1" source="WW3G36FDDyT7YbWVw8Y_-9" target="WW3G36FDDyT7YbWVw8Y_-44">
          <mxGeometry relative="1" as="geometry">
            <Array as="points">
              <mxPoint x="440" y="90" />
            </Array>
          </mxGeometry>
        </mxCell>
        <mxCell id="1D_jxNblIHZvylsowLRG-10" value="HTTP" style="edgeLabel;html=1;align=center;verticalAlign=middle;resizable=0;points=[];" vertex="1" connectable="0" parent="1D_jxNblIHZvylsowLRG-9">
          <mxGeometry x="0.667" y="-2" relative="1" as="geometry">
            <mxPoint y="-363" as="offset" />
          </mxGeometry>
        </mxCell>
        <mxCell id="1D_jxNblIHZvylsowLRG-12" style="edgeStyle=orthogonalEdgeStyle;rounded=0;orthogonalLoop=1;jettySize=auto;html=1;" edge="1" parent="1" source="WW3G36FDDyT7YbWVw8Y_-44">
          <mxGeometry relative="1" as="geometry">
            <mxPoint x="410" y="750" as="targetPoint" />
          </mxGeometry>
        </mxCell>
        <mxCell id="1D_jxNblIHZvylsowLRG-13" value="SSH" style="edgeLabel;html=1;align=center;verticalAlign=middle;resizable=0;points=[];" vertex="1" connectable="0" parent="1D_jxNblIHZvylsowLRG-12">
          <mxGeometry x="-0.0721" relative="1" as="geometry">
            <mxPoint as="offset" />
          </mxGeometry>
        </mxCell>
        <mxCell id="1D_jxNblIHZvylsowLRG-17" value="Bastion Host" style="shape=rect;fillColor=#FA4D56;aspect=fixed;resizable=0;labelPosition=center;verticalLabelPosition=bottom;align=center;verticalAlign=top;strokeColor=none;fontSize=14;" vertex="1" parent="1">
          <mxGeometry x="226" y="440" width="48" height="48" as="geometry" />
        </mxCell>
        <mxCell id="1D_jxNblIHZvylsowLRG-18" value="" style="fillColor=#ffffff;strokeColor=none;dashed=0;outlineConnect=0;html=1;labelPosition=center;verticalLabelPosition=bottom;verticalAlign=top;part=1;movable=0;resizable=0;rotatable=0;shape=mxgraph.ibm_cloud.bastion-host" vertex="1" parent="1D_jxNblIHZvylsowLRG-17">
          <mxGeometry width="24" height="24" relative="1" as="geometry">
            <mxPoint x="12" y="12" as="offset" />
          </mxGeometry>
        </mxCell>
        <mxCell id="1D_jxNblIHZvylsowLRG-19" style="edgeStyle=orthogonalEdgeStyle;rounded=0;orthogonalLoop=1;jettySize=auto;html=1;" edge="1" parent="1" target="WW3G36FDDyT7YbWVw8Y_-12">
          <mxGeometry relative="1" as="geometry">
            <mxPoint x="250" y="440" as="sourcePoint" />
            <Array as="points">
              <mxPoint x="250" y="360" />
              <mxPoint x="250" y="360" />
            </Array>
          </mxGeometry>
        </mxCell>
        <mxCell id="1D_jxNblIHZvylsowLRG-22" value="EC2 instance contents" style="points=[[0,0],[0.25,0],[0.5,0],[0.75,0],[1,0],[1,0.25],[1,0.5],[1,0.75],[1,1],[0.75,1],[0.5,1],[0.25,1],[0,1],[0,0.75],[0,0.5],[0,0.25]];outlineConnect=0;gradientColor=none;html=1;whiteSpace=wrap;fontSize=12;fontStyle=0;container=1;pointerEvents=0;collapsible=0;recursiveResize=0;shape=mxgraph.aws4.group;grIcon=mxgraph.aws4.group_ec2_instance_contents;strokeColor=#D86613;fillColor=none;verticalAlign=top;align=left;spacingLeft=30;fontColor=#D86613;dashed=0;" vertex="1" parent="1">
          <mxGeometry x="40" y="720" width="770" height="180" as="geometry" />
        </mxCell>
        <mxCell id="1D_jxNblIHZvylsowLRG-20" value="EC2 Instance" style="verticalLabelPosition=bottom;html=1;verticalAlign=top;strokeWidth=1;align=center;outlineConnect=0;dashed=0;outlineConnect=0;shape=mxgraph.aws3d.application_server;fillColor=#ECECEC;strokeColor=#5E5E5E;aspect=fixed;" vertex="1" parent="1D_jxNblIHZvylsowLRG-22">
          <mxGeometry x="310" y="30" width="123" height="124" as="geometry" />
        </mxCell>
        <mxCell id="1D_jxNblIHZvylsowLRG-23" value="&lt;b style=&quot;color: rgb(0, 0, 0); text-align: center; text-wrap-mode: nowrap;&quot;&gt;Jenkins Build Server&lt;/b&gt;" style="points=[[0,0],[0.25,0],[0.5,0],[0.75,0],[1,0],[1,0.25],[1,0.5],[1,0.75],[1,1],[0.75,1],[0.5,1],[0.25,1],[0,1],[0,0.75],[0,0.5],[0,0.25]];outlineConnect=0;gradientColor=none;html=1;whiteSpace=wrap;fontSize=12;fontStyle=0;container=1;pointerEvents=0;collapsible=0;recursiveResize=0;shape=mxgraph.aws4.group;grIcon=mxgraph.aws4.group_on_premise;strokeColor=#7D8998;fillColor=none;verticalAlign=top;align=left;spacingLeft=30;fontColor=#5A6C86;dashed=0;" vertex="1" parent="1">
          <mxGeometry x="40" y="540" width="770" height="130" as="geometry" />
        </mxCell>
      </root>
    </mxGraphModel>
  </diagram>
</mxfile>
